HIERARCHY
ROOT Hips
{
  OFFSET 57.8838 95.319 338.509
  CHANNELS 6 Xposition Yposition Zposition Zrotation Xrotation Yrotation
  JOINT LeftUpLeg
  {
    OFFSET 8.64259 1.95398 -2.38835
    CHANNELS 3 Zrotation Xrotation Yrotation
    JOINT LeftLeg
    {
      OFFSET 43.7702 0 0
      CHANNELS 3 Zrotation Xrotation Yrotation
      JOINT LeftFoot
      {
        OFFSET 40.6238 0 0
        CHANNELS 3 Zrotation Xrotation Yrotation
        JOINT LeftToeBase
        {
          OFFSET 12.7242 0 0
          CHANNELS 3 Zrotation Xrotation Yrotation
          End Site
          {
            OFFSET 0 0 0
          }
        }
      }
    }
  }
  JOINT RightUpLeg
  {
    OFFSET -8.2249 1.95398 -2.59336
    CHANNELS 3 Zrotation Xrotation Yrotation
    JOINT RightLeg
    {
      OFFSET 43.5653 0 0
      CHANNELS 3 Zrotation Xrotation Yrotation
      JOINT RightFoot
      {
        OFFSET 40.6238 0 0
        CHANNELS 3 Zrotation Xrotation Yrotation
        JOINT RightToeBase
        {
          OFFSET 12.7242 0 0
          CHANNELS 3 Zrotation Xrotation Yrotation
          End Site
          {
            OFFSET 0 0 0
          }
        }
      }
    }
  }
  JOINT Spine
  {
    OFFSET 0.165834 0.87714 6.61349
    CHANNELS 3 Zrotation Xrotation Yrotation
    JOINT Spine1
    {
      OFFSET 7.38963 1.71661e-005 0
      CHANNELS 3 Zrotation Xrotation Yrotation
      JOINT Spine2
      {
        OFFSET 11.9445 1.14441e-005 0
        CHANNELS 3 Zrotation Xrotation Yrotation
        JOINT Spine3
        {
          OFFSET 14.7254 4.19617e-005 0
          CHANNELS 3 Zrotation Xrotation Yrotation
          JOINT Spine4
          {
            OFFSET 10.9679 0 0
            CHANNELS 3 Zrotation Xrotation Yrotation
            JOINT RightShoulder
            {
              OFFSET 2.46616 -1.6653 3.69651
              CHANNELS 3 Zrotation Xrotation Yrotation
              JOINT RightArm
              {
                OFFSET 13.0012 0 0
                CHANNELS 3 Zrotation Xrotation Yrotation
                JOINT RightForeArm
                {
                  OFFSET 28.7848 1.62311e-005 0
                  CHANNELS 3 Zrotation Xrotation Yrotation
                  JOINT RightHand
                  {
                    OFFSET 26.5688 1.62095e-005 0
                    CHANNELS 3 Zrotation Xrotation Yrotation
                    End Site
                    {
                      OFFSET 0 0 0
                    }
                  }
                }
              }
            }
            JOINT LeftShoulder
            {
              OFFSET 2.38034 -1.29275 -3.7523
              CHANNELS 3 Zrotation Xrotation Yrotation
              JOINT LeftArm
              {
                OFFSET 16.3182 6.07031e-005 0
                CHANNELS 3 Zrotation Xrotation Yrotation
                JOINT LeftForeArm
                {
                  OFFSET 27.0901 0 0
                  CHANNELS 3 Zrotation Xrotation Yrotation
                  JOINT LeftHand
                  {
                    OFFSET 24.5451 1.51738e-005 0
                    CHANNELS 3 Zrotation Xrotation Yrotation
                    End Site
                    {
                      OFFSET 0 0 0
                    }
                  }
                }
              }
            }
            JOINT Neck
            {
              OFFSET 5.0226 -0.0266342 0
              CHANNELS 3 Zrotation Xrotation Yrotation
              JOINT Head
              {
                OFFSET 6.69364 2.86102e-005 0
                CHANNELS 3 Zrotation Xrotation Yrotation
                End Site
                {
                  OFFSET 0 0 0
                }
              }
            }
          }
        }
      }
    }
  }
}
MOTION
Frames:	12
Frame Time:	0.0416667
-78.108 93.1917 114.732 101.723 39.9136 83.7493 177.73 16.9787 86.833 -9.02919 8.39868 -0.0755232 55.6224 -3.60027 3.81228 37.0333 3.59628 10.9428 173.015 -9.17718 95.7514 -28.7802 -4.52086 -1.31614 71.3711 -9.63104 7.84663 39.3532 -13.492 2.44683 0.465651 7.90232 -90.3694 11.0714 0.755593 -0.808639 -0.599554 0.719293 -0.841122 -23.1354 0.96367 -0.544174 -3.12278 0.963698 -0.544169 92.1072 -57.8139 -96.185 11.5733 -13.6748 -22.6189 -2.89479 -7.84651 -28.3879 -14.3807 -1.09186 3.7095 -81.79 -57.795 91.6309 -32.3017 -36.155 -12.4538 10.9021 81.7276 0.13872 -0.385355 0.109166 -12.4301 4.00941 -0.681731 -2.06728 -26.3548 -1.21007 4.12307 
-70.8202 92.9444 108.629 101.695 39.7231 82.8159 178.01 17.3947 85.3374 -19.7502 14.0931 0.153585 54.1182 -6.25364 8.79489 31.2984 0.894531 5.78827 171.438 -9.24902 90.7166 -38.0577 -6.48856 -1.40228 64.7734 1.43782 15.0808 39.2617 -14.1808 -1.46641 0.407583 7.72296 -89.9629 11.4303 0.828374 -0.0124053 -0.240321 0.827011 -0.0488528 -22.7777 0.793795 0.237146 -2.76504 0.793793 0.237145 92.4921 -59.0676 -95.4446 15.1948 -13.9724 -16.7009 -3.73006 -8.29425 -29.5917 -13.6871 -0.900647 2.52614 -81.7096 -57.5724 91.7285 -31.373 -36.7148 -13.1023 11.4717 78.6844 0.0941175 -1.02435 0.16829 -12.2212 1.73691 -1.188 -3.8333 -25.8262 -1.70122 5.24654 
-64.601 92.8131 103.263 102.47 39.6665 80.7182 179.812 15.5131 83.4059 -27.9144 14.6858 -0.705807 59.6805 -1.6357 12.0663 28.6421 -0.14783 1.26872 169.349 1.29662 88.9581 -55.4029 -12.0506 -0.801205 55.3067 10.4697 13.791 31.1074 -3.42202 -12.2591 0.172819 7.71702 -89.5435 11.4373 0.557131 0.85439 -0.233743 0.594208 0.829026 -22.767 0.274621 0.98232 -2.75438 0.27461 0.982306 92.9113 -58.7505 -94.9106 20.8126 -13.638 -11.3148 -2.98974 -10.9664 -24.9201 -13.8229 -0.985238 3.16732 -82.1394 -57.5333 91.1279 -31.3616 -35.3813 -16.6719 10.6652 77.064 0.0737822 -0.395896 0.0834536 -13.2725 1.99852 -0.490375 -3.87239 -26.1386 -1.05101 5.46888 
-58.9078 93.5827 98.5985 104.904 39.9278 79.5238 -179.278 9.2269 83.3717 -29.6174 15.4013 -0.0220102 62.4519 1.5723 12.771 33.2016 1.77518 1.05777 168.864 10.7869 87.8188 -65.6731 -10.6707 -0.759165 57.0151 8.10438 12.1243 28.0174 1.56694 -8.53812 -0.176069 8.01377 -89.5341 10.8459 -0.135191 0.939315 -0.825321 -0.0937391 0.944354 -23.3582 -0.411263 0.85527 -3.34554 -0.411241 0.855276 93.2417 -59.0472 -94.4074 22.9131 -9.96303 -10.6213 0.442942 -13.5076 -16.0254 -13.7627 -0.967475 3.05583 -82.7586 -58.4437 90.3381 -32.6459 -32.4498 -24.5953 9.74274 72.6109 0.0481772 1.343 -0.0439272 -12.8033 1.86957 0.961661 -2.6975 -25.5929 -0.136743 7.27123 
-53.1881 94.4048 94.1288 105.168 42.3467 81.0882 -178.722 3.77219 85.0204 -28.9673 17.5721 1.42223 63.9233 4.76236 13.477 37.4847 3.5498 0.732521 168.371 17.7208 91.3723 -58.7771 -8.63325 1.05566 61.5902 2.60818 12.1037 27.3744 2.10275 -3.0088 -0.483745 7.98785 -89.8308 10.8994 -0.884877 0.419714 -0.771281 -0.865524 0.458245 -23.3087 -0.970097 0.134346 -3.29605 -0.970079 0.134352 93.933 -59.3286 -93.4094 24.3908 -5.26651 -7.21649 2.5073 -14.385 -10.9801 -13.841 -1.05064 3.75384 -82.6437 -57.1811 90.399 -37.3167 -27.9545 -33.5782 9.39186 70.7232 0.0373822 3.68651 -0.161089 -11.5349 -1.83814 2.27383 -4.94348 -24.2026 0.877396 10.2664 
-47.6066 94.9692 89.878 105.278 44.2206 80.9147 -178.06 -1.95087 85.4934 -25.531 19.1978 2.10426 63.6503 6.66618 13.486 41.7577 5.38675 1.94603 169.072 18.8917 91.0009 -36.6679 0.79485 2.57002 62.7973 2.49772 14.8971 25.3762 4.9709 -3.41838 -0.677563 7.95057 -89.928 10.9746 -1.31548 0.268419 -0.695719 -1.30238 0.326059 -23.2362 -1.33533 -0.139421 -3.2236 -1.33532 -0.139422 94.2146 -59.576 -92.9871 25.5763 -1.83586 -3.47279 2.57681 -15.0486 -9.56947 -11.8657 -1.02396 4.93542 -82.6344 -55.2117 90.2566 -36.8339 -20.9473 -36.4019 3.95717 66.586 0.217648 3.13274 -0.343556 -13.3492 -1.62814 2.7759 -4.64592 -25.1325 1.35606 9.86468 
-41.8906 95.1888 85.5846 104.929 45.1279 79.1786 -177.801 -9.30698 85.1776 -19.4552 21.0835 1.89674 60.696 7.48765 13.9749 47.9165 8.11431 2.73201 173.558 18.8122 88.263 -17.5425 3.8057 0.440289 63.2029 6.97451 14.9012 21.5942 10.1133 -2.39231 -0.698707 7.84784 -89.898 11.1804 -1.34321 0.334181 -0.489949 -1.32721 0.392972 -23.0306 -1.38154 -0.0850428 -3.01801 -1.38155 -0.085053 94.1592 -59.6001 -93.0605 25.3319 -0.132365 -1.14449 3.14222 -14.5366 -7.98729 -10.4681 -0.829551 4.20569 -82.5638 -55.3033 90.3644 -34.0883 -15.5734 -36.6415 0.531172 62.8972 -1.56731 4.37933 -0.661015 -14.3574 -0.694909 2.07757 -2.05296 -26.7862 0.632735 7.84009 
-35.5165 94.1379 81.1447 105.384 46.9891 78.405 -177.872 -11.4466 86.017 -25.156 23.5038 3.04837 60.194 8.80073 14.1008 53.6095 11.4798 7.12833 173.466 19.6365 87.2637 -19.7577 5.95168 0.142367 62.6239 9.67739 15.1826 22.5173 8.75589 -2.0469 -0.76159 7.75608 -90.0996 11.3623 -1.56182 -0.0416158 -0.30768 -1.56216 0.0271717 -22.8498 -1.47711 -0.509192 -2.83713 -1.4771 -0.509195 94.7902 -59.7187 -92.1742 24.2791 0.956739 -1.46635 3.02048 -14.8468 -7.52665 -8.78862 -0.698598 4.28666 -82.4387 -56.0875 90.6031 -32.8439 -13.304 -34.4849 6.39423 59.7873 -11.2634 4.03523 -0.671013 -14.7125 -0.977152 1.34304 -0.369596 -27.424 -0.0971173 6.60782 
-28.3331 94.0483 76.6432 105.765 46.9841 79.1834 -177.525 -10.8626 89.2983 -35.4638 20.839 4.7676 57.8681 3.22772 5.84625 58.1528 13.8124 7.55509 172.258 19.2885 88.5677 -27.8025 1.26557 1.47735 62.3627 9.54471 10.1788 20.322 11.6566 -1.49398 -0.729667 7.61639 -90.513 11.6365 -1.69185 -0.846476 -0.0335964 -1.72749 -0.771184 -22.5729 -1.35923 -1.31585 -2.56024 -1.35925 -1.31585 95.0456 -59.6561 -91.8289 21.9107 -0.210255 -3.27277 2.70551 -13.8797 -9.16107 -9.90325 -0.775704 4.10244 -82.1744 -58.1113 91.1202 -32.5506 -15.3191 -28.6059 7.41096 62.8727 -11.8874 5.02218 -0.802488 -15.2978 -2.89471 1.25038 -0.372011 -27.2407 -0.445471 7.75155 
-21.9422 93.8434 73.2836 106.622 46.9481 80.6625 -175.373 -0.284333 89.9553 -54.1034 13.6111 4.95366 50.8094 -5.87625 -0.189979 51.5098 10.6434 8.89478 171.448 16.7521 91.6004 -34.1877 1.99049 2.26668 67.5699 5.9704 9.12232 21.3621 9.73867 0.69782 -0.747817 7.61697 -90.951 11.6227 -1.9332 -1.69581 -0.0477882 -2.00596 -1.60909 -22.5802 -1.33432 -2.19828 -2.56757 -1.33432 -2.19829 95.0937 -59.5239 -91.7776 19.0867 -3.09809 -6.68458 1.58113 -11.5009 -13.4979 -9.94435 -0.634871 2.37165 -82.2546 -57.4695 90.9621 -36.2706 -21.373 -23.5758 2.15532 66.6415 -1.24534 3.53445 -0.529173 -14.0277 -1.61956 0.582151 -2.1138 -28.419 -1.1978 8.74258 
-16.5448 93.9407 70.3019 108.568 46.9474 80.2485 -175.485 9.34604 93.1829 -64.4244 9.82376 4.81192 52.9564 -1.48425 6.10525 46.786 9.08848 13.8672 170.946 12.2059 93.5645 -36.114 0.740601 2.43644 70.6327 3.53041 6.18337 23.3313 6.97178 1.77881 -0.652007 7.99345 -91.1375 10.8653 -1.82355 -2.09149 -0.805954 -1.91382 -2.00924 -23.3322 -1.11089 -2.54262 -3.31953 -1.1109 -2.54262 94.7951 -59.2202 -92.2274 16.6675 -4.6637 -12.8593 0.89176 -9.59262 -17.9479 -13.4823 -0.857951 2.19603 -83.0703 -57.0402 89.792 -41.3517 -29.0403 -26.6831 10.4921 78.2721 0.26377 1.21379 -0.0610865 -13.5061 1.16225 -0.691187 -2.98681 -27.9041 -1.66951 6.16875 
-11.5165 94.824 67.3043 107.369 43.3058 80.3017 -176.341 14.2617 89.2564 -54.9891 11.2115 2.91086 54.9621 1.7337 6.97392 53.5686 12.9217 14.1993 171.339 7.91779 93.3066 -35.0555 -0.0695419 1.16179 73.94 2.1308 8.78918 23.5166 6.72017 1.84736 -0.290193 8.10198 -90.9599 10.6583 -1.01976 -1.81546 -1.01348 -1.09867 -1.76885 -23.5393 -0.427133 -2.03792 -3.52663 -0.427138 -2.03792 94.4731 -58.0205 -92.826 16.5319 -5.61721 -17.4304 -0.703466 -9.27663 -22.9555 -14.4653 -1.04177 3.249 -83.1929 -56.9318 89.6111 -40.5767 -34.5965 -23.8312 14.6275 86.1808 0.326835 -3.95286 0.386982 -12.2086 -1.30596 -0.558631 -5.98589 -24.9272 -1.6834 9.31867 
